<svg xmlns="http://www.w3.org/2000/svg" viewBox="0 0 250 63.3">
<!-- SVG created with Arrow, by QuiverAI (https://quiver.ai) -->
  <style type="text/css">.cls-0 {fill:#494949;}
.cls-1 {fill:#AC2D29;}
.cls-2 {fill:url(#SVGID_1_);}
.cls-3 {fill:#132320;}
.cls-4 {fill:url(#SVGID_2_);}
.cls-5 {fill:url(#SVGID_3_);}
.cls-6 {fill:url(#SVGID_4_);}
.cls-7 {fill:url(#SVGID_5_);}
.cls-8 {fill:url(#SVGID_6_);}
.cls-9 {fill:url(#SVGID_7_);}
.cls-10 {fill:url(#SVGID_8_);}</style>
  <path class="cls-0" d="m189.9 41h-1.5v-0.3h3.5v0.3h-1.9l-0.6 5.9h-0.3l0.8-5.9z"/>
  <path class="cls-0" d="m192.7 40.6h0.4l-0.4 3.4c0.3-0.3 0.8-0.6 1.4-0.6 0.8 0 1.3 0.5 1.2 1.4l-0.2 2.2h-0.4l0.2-2.2c0.1-0.8-0.3-1.1-0.9-1.1s-1.1 0.3-1.3 0.6l-0.3 2.7h-0.4l0.7-6.4z"/>
  <path class="cls-0" d="m195.9 45.5c0.1-1.2 0.9-2.1 1.9-2.1 0.7 0 1.2 0.4 1.2 1 0 0.7-0.7 1.2-1.9 1.2-0.3 0-0.6 0-0.8-0.1 0 0.9 0.4 1.4 1.1 1.4 0.4 0 0.8-0.2 1-0.4l0.2 0.2c-0.3 0.3-0.7 0.5-1.2 0.5-1-0.1-1.6-0.7-1.5-1.7zm0.5-0.4c0.2 0 0.5 0.1 0.8 0.1 0.8 0 1.5-0.4 1.5-0.9 0-0.3-0.3-0.6-0.8-0.6-0.7 0-1.4 0.6-1.5 1.4z"/>
  <path class="cls-0" d="m202.3 40.7h0.3l0.8 5.4 2-5.4h0.3l0.9 5.4 2.1-5.5h0.4l-2.4 6.5-1.2-5.7-2.1 5.7-1.1-6.4z"/>
  <path class="cls-0" d="m209 45.4c0.1-1.1 0.8-2 1.7-2s1.6 0.7 1.5 1.8-0.8 1.9-1.7 1.9-1.6-0.6-1.5-1.7zm2.8-0.2c0.1-0.9-0.4-1.5-1.1-1.5-0.8 0-1.3 0.7-1.4 1.6s0.4 1.4 1.2 1.4c0.7 0 1.3-0.5 1.3-1.5z"/>
  <path class="cls-0" d="m213.6 43.5 0.1 0.4 0.2-0.2c0.2-0.2 0.5-0.3 0.8-0.3 0.2 0 0.4 0 0.6 0.1l-0.2 0.3c-0.1-0.1-0.3-0.1-0.4-0.1-0.3 0-0.6 0.1-0.8 0.3l-0.2 0.3-0.3 2.7h-0.3l0.4-3.5h0.1z"/>
  <path class="cls-0" d="m217.1 40.6-0.6 6.3h-0.3l0.7-6.3h0.2z"/>
  <path class="cls-0" d="m218.1 45.4c0.1-1.2 0.8-2.1 1.8-2.1 0.4 0 0.8 0.1 1.2 0.4l0.2-2.9h0.4l-0.6 6.1h-0.2v-0.4c-0.3 0.3-0.8 0.6-1.3 0.6-1.1 0-1.6-0.7-1.5-1.7zm2.7 0.7 0.2-2.1c-0.3-0.3-0.7-0.4-1.1-0.4-0.8 0-1.4 0.7-1.4 1.7-0.1 0.9 0.3 1.4 1.1 1.4 0.5 0 1-0.2 1.2-0.6z"/>
  <path class="cls-0" d="m225.2 40.7-0.6 6.3h-0.4l0.6-6.3h0.4z"/>
  <path class="cls-0" d="m226.1 46.5c0.2 0.2 0.5 0.3 0.8 0.3 0.4 0 0.8-0.2 0.8-0.7 0.1-0.9-1.3-0.7-1.2-1.8 0-0.6 0.5-0.9 1-0.9 0.3 0 0.7 0.1 0.9 0.3l-0.2 0.3c-0.2-0.2-0.5-0.3-0.7-0.3-0.4 0-0.7 0.2-0.7 0.6-0.1 0.9 1.3 0.7 1.2 1.8-0.1 0.7-0.6 1-1.1 1-0.4 0-0.7-0.1-1-0.4l0.2-0.2z"/>
  <path class="cls-0" d="m233 44-0.3 3h-0.3l0.3-3-1.4-3.3h0.4l1.4 2.9 2.2-2.9h0.5l-2.8 3.3z"/>
  <path class="cls-0" d="m234.8 45.4c0.1-1.1 0.8-2 1.7-2s1.6 0.7 1.5 1.8-0.8 1.9-1.7 1.9c-1 0-1.6-0.6-1.5-1.7zm2.8-0.2c0.1-0.9-0.4-1.5-1.1-1.5-0.8 0-1.3 0.7-1.4 1.6s0.4 1.4 1.2 1.4c0.7 0 1.2-0.5 1.3-1.5z"/>
  <path class="cls-0" d="m241.3 46.6c-0.3 0.3-0.8 0.5-1.3 0.5-0.7 0-1.2-0.4-1.1-1.4l0.2-2.2h0.4l-0.2 2.2c-0.1 0.8 0.3 1.1 0.8 1.1s0.9-0.2 1.2-0.4l0.3-2.9h0.3l-0.3 3.5h-0.2l-0.1-0.4z"/>
  <path class="cls-0" d="m243.3 43.5 0.1 0.4 0.2-0.2c0.2-0.2 0.5-0.3 0.8-0.3 0.2 0 0.4 0 0.6 0.1l-0.2 0.3c-0.1-0.1-0.3-0.1-0.4-0.1-0.3 0-0.6 0.1-0.8 0.3l-0.2 0.3-0.3 2.7h-0.3l0.4-3.5h0.1z"/>
  <path class="cls-0" d="m245.4 46.5c0.2 0.2 0.5 0.3 0.8 0.3 0.4 0 0.8-0.2 0.8-0.7 0.1-0.9-1.3-0.7-1.2-1.8 0-0.6 0.5-0.9 1-0.9 0.3 0 0.7 0.1 0.9 0.3l-0.2 0.3c-0.2-0.2-0.5-0.3-0.7-0.3-0.4 0-0.7 0.2-0.7 0.6-0.1 0.9 1.3 0.7 1.2 1.8-0.1 0.7-0.6 1-1.1 1-0.4 0-0.7-0.1-1-0.4l0.2-0.2z"/>
  <path class="cls-1" d="m70.2 25.4c1.2 0 2.2 0.4 3 1.4l-0.9 1.1c-0.4-0.5-1.1-0.9-1.9-0.9-1.6 0-2.9 1.4-3.1 3.3-0.1 1.5 0.8 2.8 2.1 2.8 0.4 0 0.9-0.1 1.1-0.3l0.1-1.2h-1l0.2-1.4h2.8l-0.3 3.9c-0.7 0.3-1.8 0.7-3 0.7-2 0-4.1-1.5-3.9-4.3 0.2-2.7 2.1-5.1 4.8-5.1z"/>
  <path class="cls-1" d="m76.7 25.6-1 9.1h-1.8l1-9 1.8-0.1z"/>
  <path class="cls-1" d="m77.4 32.1c0.2-1.5 1.3-2.9 2.8-2.9s2.8 1.3 2.5 2.9c-0.2 1.5-1.2 2.7-2.7 2.7s-2.6-1.1-2.6-2.7zm3.6-0.1c0.1-0.7-0.3-1.4-0.8-1.4s-1.1 0.7-1.2 1.4 0.3 1.4 0.8 1.4c0.7 0.1 1.1-0.6 1.2-1.4z"/>
  <path class="cls-1" d="m84.7 25.6h1.7l-0.4 3.9c0.2-0.1 0.5-0.3 0.9-0.3 1.5 0 2.6 1 2.4 2.8-0.2 1.9-1.4 2.7-2.4 2.7-0.6 0-1.2-0.2-1.5-0.7l-0.6 0.6h-0.9l0.8-9zm1.2 5.5-0.2 1.5c0.2 0.5 0.6 0.7 1 0.7 0.5 0 1-0.4 1-1.3 0.1-0.9-0.3-1.4-1-1.4-0.3 0-0.6 0.2-0.8 0.5z"/>
  <path class="cls-1" d="m95.2 34.6h-0.7l-0.3-0.6c-0.4 0.5-0.9 0.8-1.5 0.8-1.3 0-2.3-1.1-2.2-2.7 0.1-1.5 1.1-2.9 2.4-2.9 0.6 0 1.1 0.2 1.5 0.7l0.6-0.4h0.7l-0.5 5.1zm-1.2-2 0.2-1.2c-0.2-0.5-0.6-0.8-1-0.8-0.5 0-1 0.6-1.1 1.4-0.1 0.9 0.3 1.4 0.9 1.4 0.4 0 0.8-0.3 1-0.8z"/>
  <path class="cls-1" d="m99.6 25.6-0.9 9.1h-1.7l1-9.1h1.6z"/>
  <path class="cls-1" d="m108.4 25.6c1.6 0 2.6 1.1 2.5 2.7-0.1 1.2-0.8 2.2-1.8 2.6l1 3.5-1.7 0.3-1-3.5h-1.3l-0.4 3.4h-1.6l0.9-9h3.4zm-2 4.4h1.6c0.7 0 1.2-0.6 1.3-1.3s-0.3-1.2-0.9-1.2h-1.8l-0.2 2.5z"/>
  <path class="cls-1" d="m111.4 32.2c0.1-1.5 1.4-2.8 2.8-2.8 1.3 0 2.1 0.8 2 1.7-0.1 1-1.1 1.6-2.5 1.6-0.2 0-0.6 0-0.8-0.1 0.1 0.6 0.5 0.9 0.9 0.9s0.8-0.2 1-0.4l0.8 0.9c-0.5 0.5-1.1 0.7-1.9 0.7-1.4 0.1-2.4-0.9-2.3-2.5zm1.5-0.6c0.2 0.1 0.5 0.1 0.7 0.1 0.7 0 1.3-0.3 1.3-0.6 0-0.2-0.2-0.4-0.6-0.4-0.5-0.1-1.1 0.3-1.4 0.9z"/>
  <path class="cls-1" d="m119.5 34.7c-1.3 0-2.5-0.9-2.4-2.5s1.4-2.8 2.8-2.8c0.7 0 1.5 0.2 1.8 1l-0.8 0.9c-0.2-0.4-0.5-0.6-1-0.6-0.6 0-1.3 0.6-1.4 1.4s0.4 1.3 1 1.3c0.5 0 0.9-0.3 1.1-0.7l0.8 0.9c-0.4 0.8-1.1 1.1-1.9 1.1z"/>
  <path class="cls-1" d="m123.5 38.4h-1.6l2-4-1.3-4.8h1.5l0.7 3.1 1.5-3.1h1.5l-4.3 8.8z"/>
  <path class="cls-1" d="m130.6 34.7c-1.3 0-2.4-0.9-2.2-2.5 0.1-1.6 1.4-2.8 2.9-2.8 0.7 0 1.5 0.2 1.8 1l-0.8 0.9c-0.2-0.4-0.6-0.6-1-0.6-0.6 0-1.3 0.6-1.4 1.4s0.4 1.3 1 1.3c0.5 0 0.8-0.3 1.1-0.7l0.8 0.9c-0.5 0.8-1.2 1.1-2.2 1.1z"/>
  <path class="cls-1" d="m136.6 25.6-1 9h-1.5l1-9h1.5z"/>
  <path class="cls-1" d="m139.6 34.7h-1.8l0.6-5.2h1.6l-0.4 5.2zm-1-7.9c0-0.5 0.5-0.9 0.9-0.9s0.8 0.3 0.8 0.8-0.5 0.9-0.9 0.9c-0.5 0-0.9-0.3-0.8-0.8z"/>
  <path class="cls-1" d="m142.4 29.5 0.3 0.6c0.4-0.5 1-0.8 1.8-0.8 1.2 0 2 0.7 1.9 2.3l-0.3 3h-1.4l0.3-2.8c0.1-0.8-0.3-1-0.7-1s-0.9 0.2-1.1 0.8l-0.3 3h-1.6l0.5-5h0.6v-0.1z"/>
  <path class="cls-1" d="m148.1 36.1c0.2 0.4 0.6 0.5 1.1 0.5 0.6 0 1.2-0.3 1.3-1.2l0.1-0.8c-0.2 0.1-0.5 0.2-0.9 0.2-1.3 0-2.1-1.3-1.6-3.4 0.5-1.5 1.5-2.1 2.3-2.1 0.6 0 1.1 0.3 1.4 0.7l0.5-0.5h0.8l-0.7 6.2c-0.2 1.7-1.1 2.2-2.3 2.2-1 0-1.8-0.3-2.1-1l0.1-0.8zm3.2-3.5 0.2-1.2c-0.2-0.5-0.6-0.8-1-0.8-0.5 0-0.9 0.6-0.9 1.4-0.1 0.9 0.3 1.4 0.9 1.4 0.2 0 0.5-0.3 0.8-0.8z"/>
  <path class="cls-1" d="m157.8 32.1c0.2-1.5 1.3-2.9 2.7-2.9s2.6 1.3 2.3 2.9c-0.2 1.5-1.2 2.6-2.7 2.6s-2.4-1-2.3-2.6zm3.5-0.1c0.1-0.7-0.3-1.4-0.9-1.4s-1.1 0.7-1.2 1.4 0.3 1.4 0.8 1.4c0.7 0 1.2-0.6 1.3-1.4z"/>
  <path class="cls-1" d="m164.9 30.6h-0.7l0.1-1.1h0.7l0.2-1.6c0.2-1.6 1.1-2.5 2.4-2.5 0.7 0 1.2 0.2 1.7 0.6l-0.6 1.1c-0.2-0.2-0.5-0.4-0.9-0.4-0.5 0-0.9 0.4-1 1.1l-0.2 1.6h1.3l-0.1 1.2h-1.3l-0.9 7.8h-1.7l1-7.8z"/>
  <path class="cls-1" d="m174.4 27.1h-1.9l0.2-1.5h5.3l-0.3 1.5h-1.8l-0.8 7.5h-1.7l1-7.5z"/>
  <path class="cls-1" d="m182.6 34.6h-0.7l-0.3-0.5c-0.4 0.5-0.9 0.7-1.5 0.7-1.2 0-2.3-1.2-2.3-2.7 0.1-1.5 1.1-2.8 2.4-2.8 0.6 0 1.1 0.2 1.5 0.7l0.6-0.5h0.8l-0.5 5.1zm-1.2-2 0.2-1.2c-0.2-0.5-0.6-0.8-1-0.8-0.5 0-1 0.6-1.1 1.4-0.1 0.9 0.3 1.4 0.9 1.4 0.4 0 0.8-0.3 1-0.8z"/>
  <path class="cls-1" d="m185.8 29.5 0.3 0.6c0.4-0.5 0.8-0.8 1.6-0.8 0.7 0 1.4 0.2 1.6 0.8 0.4-0.5 1.1-0.8 1.9-0.8 1.2 0 2 0.7 1.9 2.3l-0.3 3h-1.5l0.3-2.8c0.1-0.8-0.3-1-0.7-1s-0.9 0.2-1.1 0.8l-0.3 3h-1.5l0.3-2.8c0.1-0.8-0.3-1-0.7-1s-0.9 0.2-1.1 0.8l-0.3 3h-1.7l0.6-5h0.7v-0.1z"/>
  <path class="cls-1" d="m195.3 29.4 0.6 0.1 0.3 0.7c0.4-0.6 0.9-1 1.6-1 1.3 0 2 1.2 1.8 2.8-0.1 1.6-1.2 2.7-2.5 2.7-0.4 0-0.8-0.1-1.1-0.2l-0.4 3.9h-1.6l1.3-9zm1 2-0.2 1.5c0.2 0.3 0.5 0.5 0.9 0.5 0.7 0 1.1-0.6 1.2-1.4s-0.3-1.4-0.9-1.4c-0.4 0-0.8 0.3-1 0.8z"/>
  <path class="cls-1" d="m205.6 34.6h-0.7l-0.3-0.6c-0.4 0.5-0.9 0.7-1.5 0.7-1.2 0-2.4-1.2-2.4-2.7 0.1-1.5 1.1-2.8 2.5-2.8 0.6 0 1.1 0.2 1.5 0.7l0.6-0.4h0.8l-0.5 5.1zm-1.3-2 0.2-1.2c-0.2-0.5-0.6-0.8-1-0.8-0.5 0-1 0.6-1.1 1.4-0.1 0.9 0.3 1.4 0.9 1.4 0.4 0 0.8-0.3 1-0.8z"/>
  <path class="cls-1" d="m215.4 30.1c0.8 0.4 2 3.2-0.4 4.3-0.4 0.2-0.9 0.2-1.5 0.2h-2.2l1-9h2.9c1.6 0 2.8 1.3 2.4 2.8-0.2 0.9-1.1 1.5-2.2 1.7zm-1.6-3-0.2 2.2h1.2c0.5 0 1-0.4 1.1-1 0.1-0.7-0.3-1.2-0.9-1.2h-1.2zm-0.4 3.7-0.2 2.3h1.1c0.6 0 1.3-0.4 1.4-1.1 0.1-0.8-0.4-1.2-1-1.2h-1.3z"/>
  <path class="cls-1" d="m223.5 34.6h-0.7l-0.3-0.6c-0.4 0.5-0.9 0.8-1.5 0.8-1.2 0-2.4-1.2-2.3-2.7s1.1-2.8 2.5-2.8c0.6 0 1.1 0.2 1.5 0.7l0.6-0.5h0.8l-0.6 5.1zm-1.2-2 0.2-1.2c-0.2-0.5-0.6-0.8-1-0.8-0.5 0-1 0.6-1.1 1.4-0.1 0.9 0.3 1.4 0.9 1.4 0.4 0 0.8-0.3 1-0.8z"/>
  <path class="cls-1" d="m226.2 38.4h-1.7l2-3.8-1.1-5 1.5-0.1 0.7 3.2 1.5-3.2h1.5l-4.4 8.9z"/>
  <path class="cls-1" d="m235.7 27.4-0.7 7.3h-1.2l0.7-7.3h1.2z"/>
  <path class="cls-1" d="m237.4 30.6 0.2 0.4c0.3-0.4 0.8-0.5 1.4-0.5 0.9 0 1.5 0.5 1.4 1.7l-0.2 2.5h-1.1l0.2-2.2c0.1-0.6-0.2-0.8-0.5-0.8s-0.7 0.2-0.9 0.6l-0.3 2.4h-1.1l0.4-4h0.5v-0.1z"/>
  <path class="cls-1" d="m243.5 34.8c-1 0-1.9-0.7-1.8-2 0.1-1.2 1.1-2.3 2.2-2.3 0.5 0 1.1 0.1 1.4 0.8l-0.6 0.7c-0.2-0.3-0.4-0.4-0.7-0.4-0.5 0-1 0.4-1.1 1.1-0.1 0.6 0.3 1 0.8 1 0.3 0 0.6-0.2 0.8-0.5l0.6 0.7c-0.4 0.7-0.9 0.9-1.6 0.9z"/>
  <path class="cls-1" d="m245.6 34c0-0.4 0.4-0.8 0.8-0.8s0.8 0.3 0.7 0.8c0 0.5-0.4 0.8-0.8 0.8-0.4-0.1-0.7-0.3-0.7-0.8z"/>
  <linearGradient id="SVGID_1_" x1="12.75" x2="37.75" y1="14.07" y2="14.07" gradientUnits="userSpaceOnUse">
    <stop stop-color="#4EB848" offset="0"/>
    <stop stop-color="#1C491E" offset="1"/>
  </linearGradient>
  <path class="cls-2" d="m14.2 23.4 1 0.4s4.5-17.3 9.6-21.7c1.5-1.2 2.5-1 5.3-1.3l5 3.8s-4.8 1.3-9.2 10.3c-6.6 1.4-11.7 8.5-11.7 8.5z"/>
  <path class="cls-3" d="m17.3 22.1-3.1 1.8 1.8 3 1.3-4.8z"/>
  <linearGradient id="SVGID_2_" x1="9.91" x2="34.06" y1="51.87" y2="51.87" gradientUnits="userSpaceOnUse">
    <stop stop-color="#1C491E" offset="0"/>
    <stop stop-color="#4EB848" offset="1"/>
  </linearGradient>
  <path class="cls-4" d="m10.2 48.7c3.8 1.7 10.5 0.8 10.5 0.8l4.4 2.3 9 2.7s-16.9 3.4-22.5 1.3c-2-0.7-2.5-1.5-4.1-3.8l1.6-5.5 1.1 2.2z"/>
  <linearGradient id="SVGID_3_" x1="57.86" x2="53.1" y1="28.95" y2="47.23" gradientUnits="userSpaceOnUse">
    <stop stop-color="#4EB848" offset="0"/>
    <stop stop-color="#1C491E" offset="1"/>
  </linearGradient>
  <path class="cls-5" d="m53.5 25.3s8.9 10.7 9.6 18.3c0.2 1.5-0.7 2.7-1.9 4.6l-4.4-0.8c0-2.9-3-8.8-3-8.8l0.9-3.9-1.2-9.4z"/>
  <linearGradient id="SVGID_4_" x1="36.6" x2="36.67" y1="17.34" y2="36.14" gradientUnits="userSpaceOnUse">
    <stop stop-color="#132320" offset="0"/>
    <stop stop-color="#0C1817" offset="1"/>
  </linearGradient>
  <path class="cls-6" d="m27 12.6c4.1-1.3 8.9-0.8 8.9-0.8l1.9 2.5-0.4 0.6-2-0.5 6.5 6.6 1.3 6.6-1.3 1.1-16.3-12.6 1.4-3.5z"/>
  <linearGradient id="SVGID_5_" x1="35.11" x2="54.82" y1="39.93" y2="39.93" gradientUnits="userSpaceOnUse">
    <stop stop-color="#0C1817" offset="0"/>
    <stop stop-color="#132320" offset="1"/>
  </linearGradient>
  <path class="cls-7" d="m35.1 46 1.9 1.4 9.4 0.5c2.7-0.2 6.1-4.3 6.1-4.3 2.1-4 2.3-7.6 2.3-7.6l-1.1-2.1-18.6 12.1z"/>
  <linearGradient id="SVGID_6_" x1="12.75" x2="22.15" y1="36.41" y2="36.41" gradientUnits="userSpaceOnUse">
    <stop stop-color="#1D3F85" offset="0"/>
    <stop stop-color="#0C1817" offset="1"/>
  </linearGradient>
  <path class="cls-8" d="m17.7 26.6-4 14.1c1.8 4.8 6.2 8.7 6.2 8.7l2.2-2.4-1.4-9.4 1.4-7.7-4.4-3.3z"/>
  <linearGradient id="SVGID_7_" x1="29.65" x2="38.75" y1="12.06" y2="48.02" gradientUnits="userSpaceOnUse">
    <stop stop-color="#244478" offset="0"/>
    <stop stop-color="#47A7D2" offset=".4831"/>
    <stop stop-color="#2B69AE" offset=".7753"/>
    <stop stop-color="#1D3F85" offset="1"/>
  </linearGradient>
  <path class="cls-9" d="m15.2 23.8c1.1-5 5.9-9.1 11.1-10.2 4.5-0.8 6.9 2.4 9.1 6.1l-2.5 0.9 4.7 2.5 5.5 4.3c0.8-1.4-0.7-6.4-0.7-6.4l3.9 0.5c5 2 7.6 9.6 8.3 12.6 0.8 5.1-5 14-7.1 14.3l-14.4 6.3c-11.7-0.3-15.4-6-15.4-6 1.8-0.6-1.6-7.7-2.5-24.9z"/>
  <linearGradient id="SVGID_8_" x1="16.14" x2="42.81" y1="26.3" y2="26.3" gradientUnits="userSpaceOnUse">
    <stop stop-color="#99D6E8" offset="0"/>
    <stop stop-color="#A3E4EF" offset=".5054"/>
    <stop stop-color="#5CC8E0" offset="1"/>
  </linearGradient>
  <path class="cls-10" d="m16.1 23.9c0.8-4.8 5.8-10.3 11-10 2.7 0.1 5.4 2.6 6 3.8l-2-0.2-0.5 0.6-4.1 0.8-0.9 1.2-1.2 0.3-1.7 2.7-0.8-0.1-0.2-1.4-1.2-0.5-1.8 1.3-0.6 1-0.4 2.5 0.3 1.7 0.9 0.8h0.7l-0.5-1.5 0.5-1.3 1.3-0.5-0.4 0.8 1.2 0.7 1.2 0.3 0.7-0.5 0.8 0.5 0.2-0.8-1.1-0.1-0.3-1.1-2.3-0.9 0.6-0.4 1.7 1 0.4 1 1 0.5-0.2 1-0.8-0.1-1 0.4-1.5-0.8-0.7 0.8 0.1 1.2-1 0.8-1.8-1.5-0.3 2.2-1.3-6.2zm6.5 6.5c0.9 0.7 4.5 2 6 2l-0.4-0.8-2.3-2.2-1.3 0.2-1.1-1-1.3 0.5 0.4 1.3zm0.6 14.6-1-4.5-1.1-1.1-1.1 4.1-0.4 2.5 0.5 1.9 1 0.3 1.6 2.9 2.2 1.3 2.5 0.7-2.8-2.5-0.6-2.9-0.8-1.2v-1.5zm5 7.6 0.8 0.3-0.4-1.1-0.4 0.8zm0.4-1 1.4-7.5 1.1-2.1 0.3-2 1.2-0.6 0.9-2-0.9-0.5-1.2-1.5-1.5-0.5-1.3-0.8 0.5-1.5c-4.9-1.2 2.3 1.3 7.8-1l5.5-3.1-0.2 1-1.1 1.1 0.3 1-0.9 1 0.6 3 0.8 0.3 0.7 1.1h1.1l2.4 0.6 0.8 1.9-2.3 1.6-0.7-1.5-5.7 3.4-4.7 2.1 3.1 2.1-5.5 2.7c-1 0.1-2.5 1.7-2.5 1.7z"/>
  <linearGradient id="SVGID_9_" x1="20.11" x2="53.45" y1="12.44" y2="12.44" gradientUnits="userSpaceOnUse">
    <stop stop-color="#4EB848" offset="0"/>
    <stop stop-color="#1C491E" offset="1"/>
  </linearGradient>
  <path d="m36.5 0.2c3.4-0.1 8.2 3.4 11.7 10.8 1.3-0.6 4.7-2 4.8-1.9l0.5 0.3-3.8 14.5-1.1-0.1-15.5-7.2 4.6-2.1s-6.6-11.6-12-11c-1.6 0.1-2.6 1-4.1 2.6 1.8-2.5 3.3-4.7 5-5l9.9-0.9z" fill="url(#SVGID_9_)"/>
  <linearGradient id="SVGID_10_" x1="3.104" x2="18.14" y1="38.5" y2="38.5" gradientUnits="userSpaceOnUse">
    <stop stop-color="#4EB848" offset="0"/>
    <stop stop-color="#2A6029" offset="1"/>
  </linearGradient>
  <path d="m15.6 23.8 0.9 0.1 0.9 0.7 0.7 16.3-0.6 0.7-3.6-3.5c-2 3.1-6.4 12.8-3 15.9-1.3-0.4-1.8-1.3-2.5-2.4l-5-6.1c-1-5.6 3.6-13.6 3.6-13.9l-3.6-3.5-0.2-1 12.4-3.3z" fill="url(#SVGID_10_)"/>
  <linearGradient id="SVGID_11_" x1="30.76" x2="63.17" y1="52.21" y2="46.19" gradientUnits="userSpaceOnUse">
    <stop stop-color="#2A6029" offset="0"/>
    <stop stop-color="#4EB848" offset=".4356"/>
    <stop stop-color="#4EB848" offset="1"/>
  </linearGradient>
  <path d="m30.9 50.5 15.5-7.5-1.5 4.9c4.6 0.5 14.7 1.1 17.2-4.7 0.4 1.3-0.9 3.2-0.9 3.2l-4.1 7.1c-2.5 4.9-15 4.1-15 4.1l-2.2 4.9-0.8-0.1-8.2-11v-0.9z" fill="url(#SVGID_11_)"/>
  <linearGradient id="SVGID_12_" x1="45.63" x2="53.97" y1="29.03" y2="29.03" gradientUnits="userSpaceOnUse">
    <stop stop-color="#47A7D2" offset="0"/>
    <stop stop-color="#1D3F85" offset="1"/>
  </linearGradient>
  <path d="m45.6 26.4 0.9-1.8 1-0.6 1.2 0.1 1.2 1.5 0.6-0.7 1.6 2.2 0.8-1.5 1 1.4-0.7 0.1 0.5 2 0.2 1.9-0.4 0.4-2.4-1.4-1.1-2.1 0.1-1.4-1.2-0.4-1.8 0.4-1.5-0.1zm8 6 0.3 2.5-0.3 1.6 0.3 0.4 0.1-1-0.1-2.9-0.3-0.6z" fill="url(#SVGID_12_)"/>
</svg>